<svg width="195" height="339" viewBox="0 0 195 339" fill="none" xmlns="http://www.w3.org/2000/svg">
<path d="M187.543 7.46191C192.318 12.2412 195 18.7225 195 25.4804C195 32.2383 192.318 38.7196 187.543 43.4989L61.4751 169.654L187.543 295.809C192.182 300.616 194.75 307.053 194.692 313.736C194.633 320.418 191.955 326.81 187.233 331.535C182.511 336.261 176.123 338.941 169.445 338.999C162.768 339.057 156.334 336.488 151.531 331.846L7.45677 187.672C2.6822 182.893 -6.86234e-06 176.412 -6.86234e-06 169.654C-6.86234e-06 162.896 2.6822 156.415 7.45677 151.635L151.531 7.46191C156.307 2.68405 162.784 0 169.537 0C176.29 0 182.767 2.68405 187.543 7.46191Z" fill="#ECC572"/>
</svg>
