<svg width="195" height="339" viewBox="0 0 195 339" fill="none" xmlns="http://www.w3.org/2000/svg">
<path d="M7.45678 7.46191C2.68221 12.2412 0 18.7225 0 25.4804C0 32.2383 2.68221 38.7196 7.45678 43.4989L133.525 169.654L7.45678 295.809C2.81752 300.616 0.250448 307.053 0.308476 313.736C0.366503 320.418 3.04499 326.81 7.76702 331.535C12.489 336.261 18.8768 338.941 25.5545 338.999C32.2322 339.057 38.6656 336.488 43.469 331.846L187.543 187.672C192.318 182.893 195 176.412 195 169.654C195 162.896 192.318 156.415 187.543 151.635L43.469 7.46191C38.693 2.68405 32.2162 0 25.4629 0C18.7096 0 12.2328 2.68405 7.45678 7.46191Z" fill="#ECC572"/>
</svg>
